<svg width="22" height="26" viewBox="0 0 22 26" fill="none" xmlns="http://www.w3.org/2000/svg">
<path d="M21.1468 5.03021L21.1223 4.63502L20.842 4.39037C20.7348 4.29732 18.1773 2.09971 14.396 1.02182C10.8687 0.018154 5.59001 -0.156442 0.468386 4.71761L0.221006 4.95284L0.191847 5.31354C0.179619 5.46722 -0.0969206 9.13687 1.03275 13.483C2.54243 19.2927 5.86561 23.4935 10.642 25.6294L10.9289 25.758L11.2186 25.6378C11.3315 25.5907 14.0151 24.4585 16.5895 21.3325C18.9495 18.4668 21.6556 13.3125 21.1468 5.03021ZM18.5403 14.334C17.8424 16.494 16.8021 18.4281 15.4495 20.0831C14.1938 21.62 12.8948 22.6341 11.9467 23.2499V17.1882C12.4066 17.2739 13.0415 17.4579 13.7799 17.9399C13.9953 18.08 14.2831 18.0559 14.476 17.8803C15.2548 17.1746 15.8389 16.357 16.2133 15.4495C16.5265 14.6894 16.6798 13.8938 16.6685 13.0836C16.6629 12.7145 16.3892 12.4145 16.0571 12.4145H16.0477C15.8841 12.4176 15.7317 12.4908 15.6179 12.6215C15.504 12.7522 15.4429 12.9236 15.4457 13.1055C15.4542 13.7109 15.3385 14.3099 15.1015 14.8839C14.856 15.4788 14.4882 16.0318 14.0085 16.5305C12.9898 15.9576 12.1094 15.8133 11.4491 15.7527C9.67696 15.5896 8.23689 16.2023 7.6001 16.5368C7.09123 16.0088 6.70369 15.4234 6.44879 14.794C6.22586 14.2451 6.11017 13.6732 6.10264 13.094C6.09794 12.7229 5.82328 12.4239 5.48842 12.4239H5.48372C5.14698 12.4291 4.87609 12.7375 4.88079 13.1129C4.8902 13.8792 5.04258 14.633 5.33416 15.3533C5.71605 16.2943 6.31898 17.1442 7.12509 17.8803C7.32544 18.0622 7.60856 18.0852 7.83055 17.9357C7.83901 17.9304 8.66299 17.3889 9.87731 17.1735V23.2854C8.08545 22.2514 6.56072 20.8599 5.34263 19.1463C4.12078 17.4265 3.19145 15.369 2.57912 13.0313C1.71752 9.74326 1.73257 6.78767 1.76643 5.82478C5.38496 2.51373 9.48602 1.47242 13.9577 2.73328C16.7532 3.52157 18.8827 5.03335 19.5741 5.5655C19.7302 8.78141 19.3822 11.7318 18.5403 14.335V14.334Z" fill="#DFEFFF"/>
<path d="M17.4342 7.18497C15.409 6.89119 14.1016 7.60317 13.3613 8.25241C12.5392 8.97275 12.2119 9.78614 12.1978 9.82064C12.0633 10.1615 12.2025 10.5619 12.5091 10.7135C12.5882 10.7522 12.6719 10.772 12.7575 10.772C12.9973 10.772 13.2165 10.6152 13.3162 10.3716C13.3538 10.2786 14.2794 8.09768 17.2771 8.5326C17.611 8.5786 17.9186 8.31723 17.9619 7.94608C18.0051 7.57494 17.769 7.23306 17.4342 7.18393V7.18497Z" fill="#DFEFFF"/>
<path d="M8.46368 8.25236C7.72342 7.60416 6.41597 6.89218 4.39083 7.18492C4.05692 7.23301 3.81988 7.57488 3.86315 7.94708C3.88385 8.1269 3.96756 8.28686 4.09736 8.39768C4.22717 8.5085 4.38707 8.55659 4.54886 8.53255C7.54094 8.09972 8.4712 10.2785 8.50883 10.3705C8.60665 10.6152 8.82581 10.7741 9.06755 10.7741C9.1522 10.7741 9.23498 10.7542 9.31399 10.7166C9.62251 10.566 9.76266 10.1635 9.62721 9.82059C9.61405 9.78608 9.28295 8.96956 8.46462 8.25236H8.46368Z" fill="#DFEFFF"/>
</svg>
