<svg width="197" height="39" viewBox="0 0 197 39" fill="none" xmlns="http://www.w3.org/2000/svg">
<path d="M65.0887 10.5735V27.9465H61.5926V20.5543H54.1255V27.9465H50.6294V10.5735H54.1255V17.7169H61.5926V10.5735H65.0887Z" fill="#34ACFC"/>
<path d="M79.7971 22.0973H69.6829C69.7659 23.0927 70.1155 23.8728 70.7319 24.4371C71.3478 25.0014 72.1057 25.2833 73.0044 25.2833C74.3031 25.2833 75.2272 24.7278 75.7763 23.6157H79.5474C79.148 24.9436 78.3819 26.0342 77.25 26.8887C76.1177 27.7436 74.7278 28.1704 73.0795 28.1704C71.7472 28.1704 70.5529 27.8758 69.4957 27.2868C68.4384 26.6982 67.6143 25.8641 67.0232 24.7851C66.4322 23.7066 66.1367 22.4623 66.1367 21.0519C66.1367 19.6414 66.4278 18.3723 67.0105 17.2933C67.5933 16.2148 68.4092 15.3856 69.4576 14.8043C70.5066 14.2235 71.7136 13.9333 73.0786 13.9333C74.4435 13.9333 75.5715 14.2157 76.6122 14.7795C77.6524 15.3438 78.4599 16.1443 79.0344 17.1815C79.6089 18.2187 79.8961 19.4091 79.8961 20.7534C79.8961 21.2511 79.8625 21.6993 79.7961 22.0973H79.7971ZM76.2762 19.758C76.2596 18.8618 75.9348 18.1444 75.3023 17.6049C74.6693 17.0659 73.8954 16.7961 72.98 16.7961C72.114 16.7961 71.3859 17.0576 70.7948 17.5801C70.2038 18.1026 69.8414 18.8287 69.7083 19.758H76.2762Z" fill="#34ACFC"/>
<path d="M86.2022 14.5807C86.9264 14.1661 87.7545 13.9586 88.6869 13.9586V17.6175H87.7628C86.6641 17.6175 85.8355 17.8751 85.2781 18.3888C84.7202 18.9035 84.4413 19.7993 84.4413 21.0771V27.9467H80.9452V14.1578H84.4413V16.2983C84.8909 15.5683 85.4776 14.9958 86.2018 14.5812L86.2022 14.5807Z" fill="#34ACFC"/>
<path d="M92.0834 27.2868C91.0179 26.6982 90.181 25.8641 89.5734 24.7851C88.9653 23.7066 88.662 22.4623 88.662 21.0519C88.662 19.6414 88.9741 18.3971 89.5983 17.3186C90.2225 16.2401 91.0754 15.4065 92.158 14.817C93.2402 14.2284 94.4471 13.9333 95.7789 13.9333C97.1108 13.9333 98.3177 14.2284 99.3999 14.817C100.482 15.406 101.335 16.2401 101.96 17.3186C102.584 18.3976 102.896 19.6419 102.896 21.0519C102.896 22.4619 102.575 23.7071 101.934 24.7851C101.293 25.8641 100.427 26.6977 99.337 27.2868C98.2465 27.8758 97.0269 28.1704 95.6785 28.1704C94.3301 28.1704 93.1475 27.8758 92.0825 27.2868H92.0834ZM97.4653 24.6733C98.0227 24.3666 98.4679 23.9059 98.8015 23.292C99.1346 22.6781 99.3009 21.9316 99.3009 21.0519C99.3009 19.7415 98.9551 18.7335 98.2646 18.0277C97.5736 17.3225 96.7289 16.9701 95.7297 16.9701C94.7305 16.9701 93.8941 17.323 93.2197 18.0277C92.5452 18.733 92.2083 19.741 92.2083 21.0519C92.2083 22.3627 92.537 23.3708 93.1948 24.076C93.8522 24.7812 94.6807 25.1336 95.6795 25.1336C96.312 25.1336 96.9069 24.9805 97.4648 24.6733H97.4653Z" fill="#34ACFC"/>
<path d="M20.0014 38.9698L30.5711 33.8319L31.225 32.0344L32.3545 28.9259L24.9586 25.3301L20.0014 38.9698Z" fill="#5EC2EE"/>
<path d="M22.4065 1.24632L19.8584 0.0129395L17.3103 1.24632L0.314941 9.51085L3.30077 17.7439L19.8542 9.69737H19.8584H19.8625L36.416 17.7439L39.4018 9.51085L22.4065 1.24632Z" fill="#5EC2EE"/>
<path d="M4.37256 20.693L7.36259 28.9262L8.49144 32.0347L9.14601 33.8323L19.7157 38.9702L14.7578 25.3304L19.8589 22.8551L32.3552 28.9262L35.3452 20.693L19.8589 13.1697L4.37256 20.693Z" fill="#5EC2EE"/>
<path d="M20.0013 38.9698L24.9586 25.3301L32.3544 28.9259L30.571 33.8319L20.0013 38.9698Z" fill="#00579B"/>
<path d="M32.3545 28.9259L24.9586 25.3301L23.8545 28.3886L31.225 32.0344L32.3545 28.9259Z" fill="url(#paint0_linear_44_1396)"/>
<path d="M32.3546 28.9263L19.8583 22.8551V13.1698L35.3446 20.6931L32.3546 28.9263Z" fill="#5EC2EE"/>
<path d="M22.4065 1.24635L39.4022 9.5111L36.4163 17.7443L19.8624 9.69762H19.8583V0.0129395L22.4065 1.24635Z" fill="#5EC2EE"/>
<path d="M19.7153 38.9698L14.7574 25.3301L7.36214 28.9259L9.14556 33.8319L19.7153 38.9698Z" fill="#00579B"/>
<path d="M7.36214 28.9259L14.7574 25.3301L15.8621 28.3886L8.49099 32.0344L7.36214 28.9259Z" fill="url(#paint1_linear_44_1396)"/>
<path d="M7.36259 28.9262L19.8589 22.8551V13.1697L4.37256 20.693L7.36259 28.9262Z" fill="#5EC2EE"/>
<path d="M17.3107 1.24635L0.314941 9.5111L3.30085 17.7443L19.8547 9.69762H19.8589V0.0129395L17.3107 1.24635Z" fill="#5EC2EE"/>
<path d="M20.0137 38.9696L30.583 33.8315L31.2374 32.0339L32.3663 28.9256L24.9711 25.3303L20.0137 38.9696Z" fill="#34ACFC"/>
<path d="M22.419 1.2472L19.8708 0.013916L17.3226 1.2472L0.327991 9.51154L3.31382 17.744L19.8667 9.69813H19.8708H19.8749L36.4278 17.744L39.4137 9.51154L22.419 1.2472Z" fill="#34ACFC"/>
<path d="M4.38545 20.6933L7.37543 28.926L8.50433 32.0343L9.1588 33.8319L19.7281 38.97L14.7707 25.3307L19.8712 22.855L32.367 28.926L35.357 20.6933L19.8712 13.1705L4.38545 20.6933Z" fill="#34ACFC"/>
<path d="M20.0137 38.9696L24.9711 25.3303L32.3663 28.9256L30.583 33.8315L20.0137 38.9696Z" fill="#34ACFC"/>
<path d="M32.3666 28.9256L24.9713 25.3303L23.867 28.3886L31.2376 32.0339L32.3666 28.9256Z" fill="url(#paint2_linear_44_1396)"/>
<path d="M32.3664 28.926L19.8706 22.855V13.1705L35.3564 20.6933L32.3664 28.926Z" fill="url(#paint3_linear_44_1396)"/>
<path d="M22.4189 1.24723L39.414 9.51178L36.428 17.7445L19.8747 9.69838H19.8706V0.013916L22.4189 1.24723Z" fill="url(#paint4_linear_44_1396)"/>
<path d="M19.7278 38.9696L14.7704 25.3303L7.37519 28.9256L9.15856 33.8315L19.7278 38.9696Z" fill="#34ACFC"/>
<path d="M7.37519 28.9256L14.7704 25.3303L15.8748 28.3886L8.50413 32.0339L7.37519 28.9256Z" fill="url(#paint5_linear_44_1396)"/>
<path d="M7.37543 28.926L19.8712 22.855V13.1705L4.38545 20.6933L7.37543 28.926Z" fill="url(#paint6_linear_44_1396)"/>
<path d="M17.3231 1.24723L0.327991 9.51178L3.31389 17.7445L19.8672 9.69838H19.8713V0.013916L17.3231 1.24723Z" fill="url(#paint7_linear_44_1396)"/>
<g clip-path="url(#clip0_44_1396)">
<path d="M117.022 20.5895C117.66 21.3933 117.979 22.3143 117.979 23.3525C117.979 24.2902 117.748 25.1147 117.286 25.8267C116.824 26.5387 116.156 27.0953 115.283 27.4972C114.409 27.8991 113.376 28.1 112.183 28.1H104.597V10.5679H111.855C113.048 10.5679 114.077 10.7608 114.942 11.1453C115.807 11.5304 116.462 12.0663 116.908 12.7528C117.353 13.4394 117.576 14.2184 117.576 15.0891C117.576 16.1106 117.302 16.9646 116.757 17.6511C116.21 18.3377 115.484 18.8233 114.577 19.1079C115.568 19.2921 116.382 19.7858 117.022 20.5895ZM108.125 17.8018H111.351C112.191 17.8018 112.837 17.6136 113.292 17.2365C113.746 16.8594 113.972 16.3195 113.972 15.6162C113.972 14.9129 113.745 14.3691 113.292 13.9833C112.838 13.5981 112.191 13.4059 111.351 13.4059H108.125V17.8011V17.8018ZM113.682 24.6338C114.161 24.2319 114.401 23.6626 114.401 22.9258C114.401 22.189 114.149 21.5822 113.644 21.1548C113.14 20.7275 112.46 20.5145 111.603 20.5145H108.125V25.2366H111.679C112.536 25.2366 113.204 25.0357 113.682 24.6338Z" fill="white"/>
<path d="M124.594 14.612C125.325 14.1934 126.161 13.9837 127.101 13.9837V17.6757H126.169C125.06 17.6757 124.224 17.9355 123.661 18.454C123.098 18.9731 122.817 19.8773 122.817 21.1667V28.0991H119.289V14.1846H122.817V16.3448C123.271 15.608 123.863 15.0306 124.594 14.6113V14.612Z" fill="white"/>
<path d="M130.529 27.4341C129.454 26.84 128.61 25.9987 127.996 24.9096C127.383 23.8212 127.076 22.5653 127.076 21.142C127.076 19.7186 127.391 18.4627 128.021 17.3743C128.651 16.2859 129.512 15.4446 130.604 14.8498C131.697 14.2557 132.914 13.9583 134.259 13.9583C135.604 13.9583 136.821 14.2557 137.914 14.8498C139.006 15.4446 139.867 16.2859 140.497 17.3743C141.127 18.4627 141.442 19.7186 141.442 21.142C141.442 22.5653 141.118 23.8212 140.471 24.9096C139.824 25.998 138.951 26.84 137.85 27.4341C136.75 28.0289 135.519 28.3256 134.158 28.3256C132.797 28.3256 131.604 28.0282 130.529 27.4341ZM135.96 24.7971C136.522 24.4876 136.972 24.0228 137.308 23.4032C137.644 22.7836 137.812 22.0301 137.812 21.1426C137.812 19.8198 137.463 18.803 136.766 18.091C136.069 17.3797 135.217 17.0233 134.209 17.0233C133.201 17.0233 132.356 17.379 131.676 18.091C130.996 18.803 130.655 19.8204 130.655 21.1426C130.655 22.4648 130.986 23.4829 131.65 24.1943C132.313 24.9063 133.149 25.2619 134.158 25.2619C134.796 25.2619 135.396 25.1072 135.959 24.7971H135.96Z" fill="white"/>
<path d="M161.879 14.1847L157.796 28.0999H153.991L151.446 18.3797L148.9 28.0999H145.069L140.962 14.1847H144.54L147.01 24.7843L149.681 14.1847H153.411L156.032 24.7596L158.502 14.1847H161.879Z" fill="white"/>
<path d="M164.55 27.7107C163.643 27.3008 162.924 26.7435 162.395 26.0402C161.866 25.3369 161.576 24.5586 161.526 23.704H165.08C165.147 24.2398 165.411 24.6832 165.873 25.0355C166.335 25.3872 166.91 25.5633 167.6 25.5633C168.289 25.5633 168.797 25.4294 169.175 25.1614C169.553 24.8935 169.742 24.5506 169.742 24.1313C169.742 23.6792 169.511 23.3403 169.049 23.1139C168.587 22.8875 167.852 22.641 166.844 22.3731C165.803 22.1219 164.95 21.8627 164.287 21.5947C163.623 21.3268 163.051 20.9169 162.573 20.3636C162.094 19.8104 161.854 19.0662 161.854 18.1278C161.854 17.3576 162.077 16.6543 162.522 16.018C162.967 15.3816 163.606 14.8793 164.438 14.5109C165.27 14.1425 166.248 13.9583 167.374 13.9583C169.037 13.9583 170.364 14.3729 171.356 15.2015C172.347 16.0307 172.893 17.1479 172.994 18.5545H169.617C169.567 18.0019 169.336 17.5625 168.924 17.2357C168.512 16.9088 167.963 16.746 167.274 16.746C166.635 16.746 166.143 16.8633 165.799 17.0977C165.455 17.3321 165.282 17.659 165.282 18.0769C165.282 18.5458 165.518 18.9021 165.988 19.1446C166.459 19.3877 167.189 19.6342 168.18 19.8854C169.188 20.1366 170.02 20.3965 170.675 20.6637C171.33 20.9316 171.897 21.3462 172.376 21.9069C172.854 22.4682 173.102 23.209 173.119 24.1299C173.119 24.9337 172.896 25.6538 172.451 26.2901C172.006 26.9264 171.368 27.4247 170.536 27.7844C169.704 28.1441 168.734 28.3243 167.625 28.3243C166.516 28.3243 165.458 28.1193 164.551 27.7087L164.55 27.7107Z" fill="white"/>
<path d="M187.382 22.1968H177.175C177.259 23.2015 177.612 23.9886 178.234 24.5579C178.855 25.1272 179.619 25.4119 180.527 25.4119C181.837 25.4119 182.77 24.8513 183.324 23.7293H187.129C186.726 25.069 185.953 26.1701 184.81 27.0322C183.668 27.8949 182.265 28.3255 180.602 28.3255C179.258 28.3255 178.052 28.0281 176.986 27.434C175.919 26.8399 175.087 25.9986 174.491 24.9095C173.894 23.8211 173.597 22.5652 173.597 21.1419C173.597 19.7186 173.89 18.4379 174.478 17.3495C175.066 16.261 175.89 15.4238 176.948 14.8377C178.007 14.2516 179.224 13.9589 180.603 13.9589C181.981 13.9589 183.119 14.2436 184.169 14.8129C185.218 15.3823 186.033 16.1907 186.613 17.2369C187.193 18.2838 187.483 19.4848 187.483 20.8412C187.483 21.3435 187.449 21.7956 187.382 22.1975V22.1968ZM183.829 19.8365C183.812 18.9322 183.484 18.2082 182.847 17.6636C182.208 17.1197 181.427 16.8471 180.503 16.8471C179.629 16.8471 178.894 17.111 178.298 17.6382C177.701 18.166 177.336 18.8981 177.201 19.8358H183.829V19.8365Z" fill="white"/>
<path d="M193.846 14.612C194.578 14.1934 195.413 13.9837 196.354 13.9837V17.6757H195.421C194.312 17.6757 193.476 17.9355 192.914 18.454C192.35 18.9731 192.069 19.8773 192.069 21.1667V28.0991H188.541V14.1846H192.069V16.3448C192.523 15.608 193.115 15.0306 193.846 14.6113V14.612Z" fill="white"/>
</g>
<defs>
<linearGradient id="paint0_linear_44_1396" x1="28.7918" y1="26.9996" x2="27.3168" y2="29.8549" gradientUnits="userSpaceOnUse">
<stop stop-color="#103153"/>
<stop offset="1" stop-color="#00579B"/>
</linearGradient>
<linearGradient id="paint1_linear_44_1396" x1="10.9248" y1="26.9996" x2="12.3998" y2="29.8549" gradientUnits="userSpaceOnUse">
<stop stop-color="#103153"/>
<stop offset="1" stop-color="#00579B"/>
</linearGradient>
<linearGradient id="paint2_linear_44_1396" x1="28.8035" y1="27.0028" x2="27.3335" y2="29.8539" gradientUnits="userSpaceOnUse">
<stop stop-color="#00579C"/>
<stop offset="1" stop-color="#34ACFC"/>
</linearGradient>
<linearGradient id="paint3_linear_44_1396" x1="38.7351" y1="23.3458" x2="18.8127" y2="19.1018" gradientUnits="userSpaceOnUse">
<stop stop-color="#90BDD0"/>
<stop offset="1" stop-color="white"/>
</linearGradient>
<linearGradient id="paint4_linear_44_1396" x1="43.678" y1="11.4647" x2="18.8136" y2="5.5248" gradientUnits="userSpaceOnUse">
<stop stop-color="#90BDD0"/>
<stop offset="1" stop-color="white"/>
</linearGradient>
<linearGradient id="paint5_linear_44_1396" x1="10.9383" y1="27.0028" x2="12.4083" y2="29.8538" gradientUnits="userSpaceOnUse">
<stop stop-color="#00579C"/>
<stop offset="1" stop-color="#34ACFC"/>
</linearGradient>
<linearGradient id="paint6_linear_44_1396" x1="23.2499" y1="23.3458" x2="3.32753" y2="19.1018" gradientUnits="userSpaceOnUse">
<stop stop-color="#90BDD0"/>
<stop offset="1" stop-color="white"/>
</linearGradient>
<linearGradient id="paint7_linear_44_1396" x1="24.1353" y1="11.4647" x2="-0.729063" y2="5.5248" gradientUnits="userSpaceOnUse">
<stop stop-color="#90BDD0"/>
<stop offset="1" stop-color="white"/>
</linearGradient>
<clipPath id="clip0_44_1396">
<rect width="91.7567" height="17.7574" fill="white" transform="translate(104.597 10.5679)"/>
</clipPath>
</defs>
</svg>
