<svg width="153" height="41" viewBox="0 0 153 41" fill="none" xmlns="http://www.w3.org/2000/svg">
<path d="M20.349 40.8196L31.1917 35.4538L31.8631 33.5764L33.0213 30.3303L25.4347 26.5756L20.349 40.8196Z" fill="#34ACFC"/>
<path d="M22.8163 1.42411L20.2021 0.136108L17.5879 1.42411L0.153046 10.0551L3.21621 18.6529L20.1979 10.25H20.2021H20.2063L37.188 18.6529L40.2511 10.0551L22.8163 1.42411Z" fill="#34ACFC"/>
<path d="M4.31555 21.7326L7.38289 30.3304L8.54101 33.5765L9.21241 35.4539L20.0552 40.8197L14.9695 26.5757L20.202 23.9902L33.0212 30.3304L36.0885 21.7326L20.202 13.8763L4.31555 21.7326Z" fill="#34ACFC"/>
<path d="M20.349 40.8196L25.4347 26.5756L33.0213 30.3303L31.1917 35.4538L20.349 40.8196Z" fill="white"/>
<path d="M33.0212 30.3304L25.4346 26.5757L24.3017 29.7696L31.863 33.5765L33.0212 30.3304Z" fill="url(#paint0_linear_44_1231)"/>
<path d="M33.0211 30.3304L20.202 23.9902V13.8763L36.0885 21.7326L33.0211 30.3304Z" fill="#00FF85"/>
<path d="M22.8162 1.42411L40.2511 10.0551L37.1879 18.6529L20.2062 10.25H20.202V0.136108L22.8162 1.42411Z" fill="#00FF85"/>
<path d="M20.0553 40.8196L14.9696 26.5756L7.38299 30.3303L9.21251 35.4538L20.0553 40.8196Z" fill="white"/>
<path d="M7.38299 30.3303L14.9696 26.5756L16.1025 29.7695L8.54115 33.5764L7.38299 30.3303Z" fill="url(#paint1_linear_44_1231)"/>
<path d="M7.38289 30.3304L20.202 23.9902V13.8763L4.31555 21.7326L7.38289 30.3304Z" fill="#00FF85"/>
<path d="M17.5879 1.42411L0.153046 10.0551L3.21621 18.6529L20.1979 10.25H20.2021V0.136108L17.5879 1.42411Z" fill="#00FF85"/>
<g clip-path="url(#clip0_44_1231)">
<path d="M66.7021 11.2218V29.304H63.1277V21.6102H55.4932V29.304H51.9187V11.2218H55.4932V18.657H63.1277V11.2218H66.7021Z" fill="#00FF85"/>
<path d="M81.7409 23.2161H71.4001C71.4852 24.2521 71.8426 25.0641 72.4727 25.6511C73.1022 26.2387 73.8768 26.532 74.7959 26.532C76.1238 26.532 77.0682 25.9535 77.63 24.7965H81.4856C81.0772 26.1784 80.2937 27.3138 79.1366 28.2032C77.9789 29.093 76.5579 29.5374 74.8726 29.5374C73.5105 29.5374 72.2895 29.2311 71.2086 28.618C70.1276 28.0053 69.2847 27.1371 68.6809 26.0142C68.0766 24.8919 67.7742 23.5963 67.7742 22.1284C67.7742 20.6606 68.0721 19.3394 68.668 18.2165C69.2639 17.0942 70.0979 16.2309 71.1705 15.6258C72.243 15.0217 73.4769 14.7189 74.8726 14.7189C76.2684 14.7189 77.4216 15.0127 78.4857 15.5997C79.5493 16.1872 80.3749 17.0203 80.9624 18.0995C81.5494 19.1792 81.8434 20.418 81.8434 21.8171C81.8434 22.3353 81.8093 22.8013 81.7414 23.2161H81.7409ZM78.1407 20.7811C78.1234 19.8486 77.7918 19.1018 77.1449 18.5404C76.498 17.9795 75.7061 17.6983 74.7702 17.6983C73.8847 17.6983 73.1398 17.9705 72.536 18.5143C71.9317 19.0582 71.5615 19.8139 71.4254 20.7811H78.1402H78.1407Z" fill="#00FF85"/>
<path d="M88.2901 15.3927C89.0305 14.9613 89.8769 14.7449 90.8306 14.7449V18.5528H89.8858C88.7623 18.5528 87.9154 18.821 87.3452 19.3558C86.7746 19.8911 86.49 20.8236 86.49 22.1534V29.3033H82.9155V14.9523H86.49V17.1799C86.9498 16.4201 87.5496 15.8245 88.2901 15.3927Z" fill="#00FF85"/>
<path d="M94.3031 28.6175C93.2137 28.0048 92.358 27.1366 91.7368 26.0137C91.1152 24.8914 90.8048 23.5958 90.8048 22.1279C90.8048 20.6601 91.1241 19.365 91.7626 18.2421C92.401 17.1198 93.2731 16.252 94.3798 15.6384C95.486 15.0257 96.7199 14.7189 98.082 14.7189C99.4441 14.7189 100.677 15.0257 101.784 15.6384C102.89 16.2515 103.763 17.1193 104.401 18.2421C105.04 19.365 105.359 20.6601 105.359 22.1279C105.359 23.5958 105.031 24.8914 104.376 26.0137C103.721 27.1366 102.835 28.0043 101.721 28.6175C100.606 29.2306 99.3589 29.5369 97.9805 29.5369C96.6021 29.5369 95.393 29.2306 94.3036 28.6175H94.3031ZM99.8054 25.8972C100.376 25.5778 100.831 25.0988 101.171 24.4595C101.512 23.8207 101.682 23.0434 101.682 22.1279C101.682 20.764 101.329 19.7145 100.623 18.9803C99.9162 18.2466 99.0521 17.8796 98.031 17.8796C97.0099 17.8796 96.1542 18.2466 95.4647 18.9803C94.7753 19.7145 94.4308 20.764 94.4308 22.1279C94.4308 23.4918 94.7669 24.5414 95.4395 25.2755C96.1116 26.0097 96.959 26.3763 97.98 26.3763C98.6269 26.3763 99.2352 26.2166 99.8054 25.8972Z" fill="#00FF85"/>
<path d="M120.299 19.6448C119.842 20.502 119.126 21.193 118.152 21.7178C117.178 22.2425 115.95 22.5052 114.467 22.5052H111.442V29.5375H107.821V11.2219H114.468C115.864 11.2219 117.054 11.467 118.037 11.9566C119.02 12.4467 119.757 13.1201 120.248 13.9768C120.74 14.834 120.985 15.8047 120.985 16.8894C120.985 17.8691 120.756 18.7876 120.299 19.6443L120.299 19.6448ZM116.536 18.8443C117.019 18.3808 117.26 17.729 117.26 16.8894C117.26 15.1052 116.277 14.2128 114.312 14.2128H111.441V19.5393H114.312C115.311 19.5393 116.053 19.3078 116.536 18.8438V18.8443Z" fill="white"/>
<path d="M122.446 18.3065C123.023 17.1696 123.807 16.2953 124.799 15.6827C125.79 15.0705 126.898 14.7642 128.122 14.7642C129.191 14.7642 130.127 14.9832 130.928 15.4201C131.73 15.8574 132.372 16.4083 132.855 17.0732V15.0002H136.501V29.5371H132.855V27.4119C132.389 28.0943 131.747 28.6583 130.928 29.1042C130.109 29.5501 129.165 29.7731 128.096 29.7731C126.889 29.7731 125.79 29.4582 124.799 28.8285C123.807 28.1988 123.023 27.3109 122.445 26.1655C121.867 25.02 121.579 23.7034 121.579 22.2164C121.579 20.7295 121.867 19.4439 122.445 18.3065H122.446ZM132.337 19.9727C131.993 19.3345 131.527 18.8444 130.941 18.5034C130.354 18.1624 129.725 17.9917 129.053 17.9917C128.381 17.9917 127.76 18.1584 127.191 18.4903C126.622 18.8228 126.161 19.3084 125.808 19.9466C125.454 20.5854 125.278 21.3416 125.278 22.2164C125.278 23.0912 125.454 23.8565 125.808 24.5124C126.161 25.1682 126.626 25.6714 127.204 26.0209C127.782 26.3709 128.398 26.5456 129.054 26.5456C129.709 26.5456 130.355 26.3749 130.941 26.0339C131.527 25.693 131.993 25.2033 132.338 24.5646C132.682 23.9263 132.855 23.161 132.855 22.2687C132.855 21.3763 132.682 20.6115 132.338 19.9727H132.337Z" fill="white"/>
<path d="M152.717 15.0003L143.846 36.4119H139.993L143.096 29.1696L137.355 15.0003H141.415L145.113 25.1552L148.864 15.0003H152.717H152.717Z" fill="white"/>
</g>
<defs>
<linearGradient id="paint0_linear_44_1231" x1="29.3659" y1="28.3224" x2="27.9364" y2="31.377" gradientUnits="userSpaceOnUse">
<stop stop-color="#394754" stop-opacity="0.6"/>
<stop offset="1" stop-color="#394754" stop-opacity="0"/>
</linearGradient>
<linearGradient id="paint1_linear_44_1231" x1="11.0383" y1="28.3223" x2="12.5893" y2="31.2772" gradientUnits="userSpaceOnUse">
<stop stop-color="#394754" stop-opacity="0.6"/>
<stop offset="1" stop-color="#2C3E4D" stop-opacity="0"/>
</linearGradient>
<clipPath id="clip0_44_1231">
<rect width="100.798" height="25.1899" fill="white" transform="translate(51.9187 11.2218)"/>
</clipPath>
</defs>
</svg>
