<svg width="190" height="42" viewBox="0 0 190 42" fill="none" xmlns="http://www.w3.org/2000/svg">
<path d="M67.6479 11.7451V29.8877H64.0092V22.1681H56.2373V29.8877H52.5985V11.7451H56.2373V19.2049H64.0092V11.7451H67.6479Z" fill="#34ACFC"/>
<path d="M82.9572 23.7797H72.4302C72.5165 24.8192 72.8804 25.6338 73.522 26.2231C74.163 26.8124 74.9518 27.1068 75.8872 27.1068C77.2389 27.1068 78.2007 26.5266 78.7723 25.3653H82.6973C82.2816 26.752 81.4842 27.891 80.3061 28.7833C79.1276 29.6761 77.681 30.1217 75.9654 30.1217C74.5787 30.1217 73.3357 29.8142 72.2353 29.199C71.1349 28.5843 70.2771 27.7133 69.6619 26.5865C69.0467 25.4602 68.7391 24.1609 68.7391 22.6879C68.7391 21.2149 69.0422 19.8897 69.6487 18.7629C70.2552 17.6366 71.1044 16.7706 72.1957 16.1636C73.2875 15.557 74.5437 15.254 75.9644 15.254C77.3851 15.254 78.5591 15.5489 79.6422 16.1377C80.7249 16.727 81.5654 17.563 82.1633 18.6461C82.7612 19.7293 83.0602 20.9723 83.0602 22.3762C83.0602 22.896 83.0252 23.364 82.9561 23.7797H82.9572ZM79.2925 21.3367C79.2753 20.4008 78.9372 19.6516 78.2789 19.0882C77.6201 18.5253 76.8146 18.2436 75.8619 18.2436C74.9604 18.2436 74.2026 18.5167 73.5874 19.0623C72.9723 19.608 72.5951 20.3663 72.4566 21.3367H79.2925Z" fill="#34ACFC"/>
<path d="M89.6241 15.9297C90.3778 15.4968 91.2397 15.28 92.2101 15.28V19.101H91.2483C90.1047 19.101 89.2424 19.37 88.6622 19.9065C88.0816 20.444 87.7912 21.3795 87.7912 22.7139V29.8879H84.1525V15.4881H87.7912V17.7235C88.2592 16.9611 88.8698 16.3632 89.6235 15.9302L89.6241 15.9297Z" fill="#34ACFC"/>
<path d="M95.7454 29.199C94.6364 28.5843 93.7654 27.7133 93.133 26.5865C92.5 25.4602 92.1843 24.1609 92.1843 22.6879C92.1843 21.2149 92.5092 19.9155 93.1589 18.7892C93.8085 17.663 94.6963 16.7925 95.8231 16.1768C96.9494 15.5621 98.2056 15.254 99.5918 15.254C100.978 15.254 102.234 15.5621 103.36 16.1768C104.487 16.792 105.375 17.663 106.025 18.7892C106.674 19.9161 106.999 21.2154 106.999 22.6879C106.999 24.1603 106.665 25.4607 105.998 26.5865C105.331 27.7133 104.43 28.5838 103.295 29.199C102.16 29.8142 100.891 30.1217 99.4872 30.1217C98.0838 30.1217 96.8529 29.8142 95.7444 29.199H95.7454ZM101.347 26.4698C101.927 26.1495 102.391 25.6683 102.738 25.0273C103.084 24.3862 103.257 23.6066 103.257 22.6879C103.257 21.3195 102.898 20.2668 102.179 19.5298C101.46 18.7933 100.581 18.4253 99.5405 18.4253C98.5005 18.4253 97.63 18.7938 96.9281 19.5298C96.2261 20.2663 95.8754 21.319 95.8754 22.6879C95.8754 24.0568 96.2175 25.1095 96.9022 25.846C97.5864 26.5825 98.4487 26.9505 99.4882 26.9505C100.147 26.9505 100.766 26.7906 101.346 26.4698H101.347Z" fill="#34ACFC"/>
<path d="M20.7198 41.4L31.7209 36.0345L32.4016 34.1573L33.5772 30.9112L25.8795 27.1561L20.7198 41.4Z" fill="#5EC2EE"/>
<path d="M23.223 2.00454L20.5709 0.716492L17.9187 2.00454L0.229248 10.6354L3.33703 19.2334L20.5666 10.8302H20.5709H20.5752L37.8047 19.2334L40.9125 10.6354L23.223 2.00454Z" fill="#5EC2EE"/>
<path d="M4.45258 22.3132L7.56465 30.9111L8.73957 34.1573L9.42085 36.0345L20.422 41.4L15.2617 27.1561L20.571 24.5711L33.5773 30.9111L36.6894 22.3132L20.571 14.4567L4.45258 22.3132Z" fill="#5EC2EE"/>
<path d="M20.7198 41.4L25.8795 27.156L33.5772 30.9111L31.7209 36.0345L20.7198 41.4Z" fill="#00579B"/>
<path d="M33.5773 30.9112L25.8796 27.1561L24.7305 30.3501L32.4018 34.1573L33.5773 30.9112Z" fill="url(#paint0_linear_44_1352)"/>
<path d="M33.5772 30.9111L20.5709 24.571V14.4566L36.6893 22.3131L33.5772 30.9111Z" fill="#5EC2EE"/>
<path d="M23.223 2.00448L40.9125 10.6353L37.8047 19.2333L20.5752 10.8301H20.5709V0.716431L23.223 2.00448Z" fill="#5EC2EE"/>
<path d="M20.4219 41.4L15.2617 27.1561L7.56458 30.9112L9.42078 36.0345L20.4219 41.4Z" fill="#00579B"/>
<path d="M7.56458 30.9112L15.2617 27.1561L16.4114 30.3501L8.7395 34.1573L7.56458 30.9112Z" fill="url(#paint1_linear_44_1352)"/>
<path d="M7.56465 30.9111L20.571 24.5711V14.4567L4.45258 22.3132L7.56465 30.9111Z" fill="#5EC2EE"/>
<path d="M17.9187 2.00454L0.229248 10.6354L3.33703 19.2334L20.5666 10.8302H20.5709V0.716492L17.9187 2.00454Z" fill="#5EC2EE"/>
<path d="M20.7329 41.3997L31.7336 36.034L32.4148 34.1568L33.5897 30.9108L25.8927 27.1562L20.7329 41.3997Z" fill="#34ACFC"/>
<path d="M23.2363 2.00554L20.584 0.71759L17.9317 2.00554L0.242981 10.6362L3.35075 19.2336L20.5797 10.8311H20.584H20.5883L37.8172 19.2336L40.925 10.6362L23.2363 2.00554Z" fill="#34ACFC"/>
<path d="M4.46625 22.3132L7.57826 30.9106L8.75324 34.1566L9.43442 36.0339L20.4351 41.3995L15.2753 27.1561L20.5841 24.5707L33.5899 30.9106L36.7019 22.3132L20.5841 14.4572L4.46625 22.3132Z" fill="#34ACFC"/>
<path d="M20.7329 41.3997L25.8927 27.1562L33.5897 30.9108L31.7336 36.034L20.7329 41.3997Z" fill="#34ACFC"/>
<path d="M33.5899 30.911L25.8928 27.1565L24.7433 30.3502L32.4148 34.157L33.5899 30.911Z" fill="url(#paint2_linear_44_1352)"/>
<path d="M33.5899 30.9106L20.5841 24.5707V14.4572L36.702 22.3132L33.5899 30.9106Z" fill="url(#paint3_linear_44_1352)"/>
<path d="M23.2364 2.00548L40.9251 10.6361L37.8173 19.2336L20.5884 10.831H20.5841V0.717529L23.2364 2.00548Z" fill="url(#paint4_linear_44_1352)"/>
<path d="M20.435 41.3997L15.2753 27.1562L7.57819 30.9108L9.43434 36.034L20.435 41.3997Z" fill="#34ACFC"/>
<path d="M7.57819 30.9108L15.2753 27.1562L16.4247 30.35L8.7532 34.1568L7.57819 30.9108Z" fill="url(#paint5_linear_44_1352)"/>
<path d="M7.57826 30.9106L20.5841 24.5707V14.4572L4.46625 22.3132L7.57826 30.9106Z" fill="url(#paint6_linear_44_1352)"/>
<path d="M17.9317 2.00554L0.242981 10.6362L3.35075 19.2336L20.5797 10.8311H20.584V0.71759L17.9317 2.00554Z" fill="url(#paint7_linear_44_1352)"/>
<path d="M112.04 29.4289C111.04 29.0015 110.249 28.386 109.668 27.5825C109.087 26.7789 108.788 25.8304 108.771 24.7356H112.617C112.669 25.4707 112.929 26.052 113.4 26.4794C113.869 26.9068 114.515 27.1209 115.336 27.1209C116.156 27.1209 116.831 26.9198 117.311 26.5184C117.789 26.1169 118.029 25.5911 118.029 24.9414C118.029 24.4114 117.866 23.9758 117.542 23.6339C117.217 23.2919 116.811 23.0225 116.324 22.8262C115.837 22.6299 115.165 22.4118 114.311 22.1724C113.148 21.8305 112.204 21.4927 111.477 21.1597C110.75 20.8259 110.126 20.3219 109.604 19.647C109.082 18.9699 108.822 18.0679 108.822 16.9396C108.822 15.8796 109.087 14.9564 109.617 14.1699C110.147 13.3835 110.89 12.781 111.847 12.3618C112.805 11.9433 113.899 11.7333 115.13 11.7333C116.976 11.7333 118.477 12.1819 119.63 13.0799C120.784 13.9778 121.421 15.2299 121.541 16.837H117.592C117.558 16.2215 117.297 15.7127 116.809 15.3113C116.322 14.9099 115.677 14.7088 114.873 14.7088C114.172 14.7088 113.612 14.888 113.194 15.2477C112.775 15.6067 112.565 16.1285 112.565 16.8124C112.565 17.2911 112.723 17.6884 113.04 18.005C113.356 18.3216 113.749 18.5781 114.22 18.7744C114.689 18.9713 115.352 19.1977 116.207 19.4541C117.369 19.796 118.318 20.138 119.053 20.4799C119.788 20.8218 120.421 21.3347 120.951 22.0186C121.481 22.7024 121.745 23.6003 121.745 24.7116C121.745 25.669 121.497 26.558 121.001 27.3787C120.506 28.1993 119.779 28.8531 118.821 29.3407C117.864 29.8276 116.727 30.0717 115.41 30.0717C114.162 30.0717 113.038 29.8583 112.038 29.4302L112.04 29.4289Z" fill="white"/>
<path d="M136.415 23.8646H126.029C126.114 24.8904 126.473 25.6939 127.106 26.2752C127.739 26.8565 128.516 27.1471 129.439 27.1471C130.773 27.1471 131.722 26.5747 132.286 25.4292H136.158C135.747 26.797 134.961 27.9212 133.798 28.8014C132.636 29.6822 131.208 30.1219 129.516 30.1219C128.148 30.1219 126.921 29.8183 125.836 29.2117C124.75 28.6051 123.904 27.7462 123.298 26.6342C122.69 25.5229 122.387 24.2407 122.387 22.7875C122.387 21.3343 122.686 20.0268 123.285 18.9155C123.883 17.8042 124.721 16.9494 125.798 16.351C126.875 15.7526 128.114 15.4538 129.517 15.4538C130.919 15.4538 132.077 15.7444 133.145 16.3257C134.213 16.907 135.043 17.7324 135.633 18.8006C136.222 19.8695 136.518 21.0956 136.518 22.4804C136.518 22.9933 136.484 23.4549 136.415 23.8653V23.8646ZM132.8 21.4533C132.783 20.5301 132.449 19.7908 131.8 19.2349C131.15 18.6796 130.355 18.4012 129.415 18.4012C128.526 18.4012 127.778 18.6707 127.171 19.2089C126.564 19.7477 126.192 20.4952 126.056 21.4526H132.8V21.4533Z" fill="white"/>
<path d="M137.53 18.9146C138.103 17.8034 138.881 16.9485 139.864 16.3502C140.846 15.7518 141.945 15.4529 143.159 15.4529C144.219 15.4529 145.146 15.667 145.942 16.0944C146.736 16.5218 147.374 17.0607 147.852 17.7097V15.6841H151.469V29.8913H147.852V27.8137C147.391 28.4805 146.754 29.0316 145.942 29.4679C145.129 29.9043 144.194 30.1217 143.134 30.1217C141.937 30.1217 140.847 29.814 139.864 29.1985C138.881 28.583 138.103 27.7152 137.531 26.5957C136.958 25.4763 136.672 24.1892 136.672 22.736C136.672 21.2828 136.958 20.0266 137.531 18.9146H137.53ZM147.34 20.5429C146.998 19.9192 146.536 19.4405 145.955 19.1068C145.373 18.7731 144.75 18.6069 144.082 18.6069C143.415 18.6069 142.8 18.7697 142.236 19.0938C141.672 19.4186 141.214 19.8932 140.864 20.5169C140.513 21.1413 140.338 21.8805 140.338 22.7354C140.338 23.5902 140.513 24.3383 140.864 24.9791C141.214 25.6206 141.676 26.1116 142.249 26.4535C142.821 26.7954 143.433 26.9664 144.082 26.9664C144.732 26.9664 145.373 26.7995 145.955 26.4665C146.536 26.1328 146.998 25.6548 147.34 25.0304C147.682 24.4067 147.852 23.6586 147.852 22.7866C147.852 21.9147 147.682 21.1673 147.34 20.5429Z" fill="white"/>
<path d="M158.842 16.1192C159.586 15.6918 160.436 15.4777 161.393 15.4777V19.2472H160.444C159.316 19.2472 158.465 19.5125 157.892 20.0418C157.319 20.5718 157.034 21.495 157.034 22.8114V29.8894H153.443V15.6836H157.034V17.889C157.495 17.1368 158.098 16.5473 158.842 16.1192Z" fill="white"/>
<path d="M162.24 18.9276C162.838 17.8252 163.667 16.9704 164.728 16.3632C165.788 15.7566 167.002 15.4529 168.369 15.4529C170.13 15.4529 171.587 15.8933 172.742 16.7735C173.896 17.6543 174.669 18.8893 175.063 20.4793H171.191C170.986 19.8638 170.64 19.381 170.152 19.0302C169.665 18.6801 169.062 18.5043 168.344 18.5043C167.318 18.5043 166.506 18.8763 165.908 19.6197C165.31 20.3637 165.011 21.4189 165.011 22.7866C165.011 24.1544 165.31 25.1843 165.908 25.9283C166.506 26.6723 167.318 27.0437 168.344 27.0437C169.797 27.0437 170.746 26.394 171.19 25.0947H175.062C174.669 26.6334 173.891 27.8561 172.729 28.7615C171.566 29.6676 170.113 30.121 168.369 30.121C167.002 30.121 165.788 29.8174 164.728 29.2108C163.668 28.6042 162.838 27.7487 162.24 26.6463C161.641 25.544 161.343 24.2576 161.343 22.7866C161.343 21.3157 161.641 20.03 162.24 18.9269V18.9276Z" fill="white"/>
<path d="M187.038 16.1833C187.876 16.6538 188.53 17.3459 189 18.2609C189.47 19.1759 189.705 20.2742 189.705 21.5564V29.8913H186.115V22.044C186.115 20.9156 185.833 20.0478 185.268 19.4412C184.704 18.8347 183.935 18.531 182.96 18.531C181.986 18.531 181.186 18.8347 180.614 19.4412C180.041 20.0485 179.755 20.9156 179.755 22.044V29.8913H176.165V10.9135H179.755V17.4526C180.217 16.8371 180.832 16.3543 181.601 16.0035C182.371 15.6533 183.226 15.4776 184.166 15.4776C185.243 15.4776 186.2 15.7128 187.038 16.1826V16.1833Z" fill="white"/>
<defs>
<linearGradient id="paint0_linear_44_1352" x1="29.8692" y1="28.8995" x2="28.326" y2="31.8771" gradientUnits="userSpaceOnUse">
<stop stop-color="#103153"/>
<stop offset="1" stop-color="#00579B"/>
</linearGradient>
<linearGradient id="paint1_linear_44_1352" x1="11.2727" y1="28.8995" x2="12.8159" y2="31.8771" gradientUnits="userSpaceOnUse">
<stop stop-color="#103153"/>
<stop offset="1" stop-color="#00579B"/>
</linearGradient>
<linearGradient id="paint2_linear_44_1352" x1="29.8813" y1="28.9031" x2="28.3432" y2="31.8762" gradientUnits="userSpaceOnUse">
<stop stop-color="#00579C"/>
<stop offset="1" stop-color="#34ACFC"/>
</linearGradient>
<linearGradient id="paint3_linear_44_1352" x1="40.2186" y1="25.0832" x2="19.477" y2="20.6795" gradientUnits="userSpaceOnUse">
<stop stop-color="#90BDD0"/>
<stop offset="1" stop-color="white"/>
</linearGradient>
<linearGradient id="paint4_linear_44_1352" x1="45.3632" y1="12.6756" x2="19.4746" y2="6.51164" gradientUnits="userSpaceOnUse">
<stop stop-color="#90BDD0"/>
<stop offset="1" stop-color="white"/>
</linearGradient>
<linearGradient id="paint5_linear_44_1352" x1="11.2867" y1="28.9029" x2="12.8248" y2="31.876" gradientUnits="userSpaceOnUse">
<stop stop-color="#00579C"/>
<stop offset="1" stop-color="#34ACFC"/>
</linearGradient>
<linearGradient id="paint6_linear_44_1352" x1="24.1007" y1="25.0832" x2="3.35915" y2="20.6795" gradientUnits="userSpaceOnUse">
<stop stop-color="#90BDD0"/>
<stop offset="1" stop-color="white"/>
</linearGradient>
<linearGradient id="paint7_linear_44_1352" x1="25.022" y1="12.6756" x2="-0.866526" y2="6.5117" gradientUnits="userSpaceOnUse">
<stop stop-color="#90BDD0"/>
<stop offset="1" stop-color="white"/>
</linearGradient>
</defs>
</svg>
