<svg width="181" height="41" viewBox="0 0 181 41" fill="none" xmlns="http://www.w3.org/2000/svg">
<path d="M66.8365 11.6545V29.4924H63.2432V21.9024H55.5684V29.4924H51.9752V11.6545H55.5684V18.989H63.2432V11.6545H66.8365Z" fill="#5EC2EE"/>
<path d="M81.9545 23.4869H71.5591C71.6443 24.5089 72.0037 25.3099 72.6372 25.8893C73.2702 26.4687 74.0492 26.7581 74.9729 26.7581C76.3077 26.7581 77.2575 26.1877 77.8219 25.0459H81.6979C81.2874 26.4093 80.4999 27.5292 79.3366 28.4065C78.1727 29.2843 76.7442 29.7225 75.0501 29.7225C73.6808 29.7225 72.4533 29.42 71.3666 28.8152C70.2799 28.2109 69.4329 27.3545 68.8254 26.2466C68.2179 25.1392 67.9142 23.8617 67.9142 22.4134C67.9142 20.9652 68.2134 19.6622 68.8124 18.5543C69.4113 17.4469 70.2499 16.5956 71.3275 15.9987C72.4056 15.4024 73.6462 15.1044 75.0491 15.1044C76.452 15.1044 77.6114 15.3944 78.681 15.9733C79.7501 16.5527 80.5801 17.3746 81.1706 18.4395C81.761 19.5045 82.0562 20.7267 82.0562 22.107C82.0562 22.6181 82.0216 23.0782 81.9535 23.4869H81.9545ZM78.3356 21.085C78.3186 20.1647 77.9848 19.4282 77.3347 18.8742C76.6841 18.3208 75.8886 18.0438 74.9478 18.0438C74.0577 18.0438 73.3093 18.3123 72.7019 18.8488C72.0944 19.3852 71.722 20.1308 71.5851 21.085H78.3356Z" fill="#5EC2EE"/>
<path d="M88.5382 15.7691C89.2825 15.3434 90.1336 15.1303 91.092 15.1303V18.8871H90.1421C89.0129 18.8871 88.1613 19.1516 87.5884 19.6791C87.015 20.2076 86.7283 21.1273 86.7283 22.4393V29.4928H83.135V15.3349H86.7283V17.5327C87.1904 16.7831 87.7934 16.1952 88.5377 15.7696L88.5382 15.7691Z" fill="#5EC2EE"/>
<path d="M94.583 28.8152C93.4879 28.2109 92.6278 27.3545 92.0032 26.2466C91.3782 25.1392 91.0664 23.8617 91.0664 22.4134C91.0664 20.9652 91.3872 19.6877 92.0288 18.5803C92.6704 17.4729 93.547 16.617 94.6597 16.0117C95.7719 15.4074 97.0125 15.1044 98.3813 15.1044C99.7502 15.1044 100.991 15.4074 102.103 16.0117C103.215 16.6165 104.092 17.4729 104.734 18.5803C105.375 19.6882 105.696 20.9657 105.696 22.4134C105.696 23.8612 105.366 25.1397 104.708 26.2466C104.049 27.3545 103.159 28.2104 102.038 28.8152C100.918 29.42 99.664 29.7225 98.2781 29.7225C96.8922 29.7225 95.6767 29.42 94.582 28.8152H94.583ZM100.115 26.1318C100.687 25.8169 101.145 25.3438 101.488 24.7135C101.83 24.0833 102.001 23.3167 102.001 22.4134C102.001 21.068 101.646 20.033 100.936 19.3084C100.226 18.5843 99.3577 18.2225 98.3307 18.2225C97.3037 18.2225 96.4441 18.5848 95.7509 19.3084C95.0577 20.0325 94.7113 21.0675 94.7113 22.4134C94.7113 23.7594 95.0492 24.7944 95.7253 25.5185C96.401 26.2426 97.2526 26.6044 98.2791 26.6044C98.9292 26.6044 99.5407 26.4472 100.114 26.1318H100.115Z" fill="#5EC2EE"/>
<path d="M130.748 11.6545L125.743 29.4924H121.508L118.145 16.7912L114.629 29.4924L110.419 29.5178L105.594 11.6545H109.444L112.601 25.5055L116.246 11.6545H120.251L123.69 25.4292L126.873 11.6545H130.749H130.748Z" fill="white"/>
<path d="M131.48 18.5545C132.053 17.4471 132.831 16.5958 133.815 15.9989C134.799 15.4025 135.899 15.1046 137.113 15.1046C138.174 15.1046 139.103 15.3177 139.898 15.7434C140.694 16.1696 141.331 16.7061 141.81 17.3533V15.3342H145.429V29.4921H141.81V27.422C141.348 28.0863 140.711 28.6357 139.898 29.0704C139.085 29.5051 138.149 29.7221 137.088 29.7221C135.89 29.7221 134.799 29.4152 133.815 28.8019C132.831 28.1886 132.053 27.3242 131.48 26.2079C130.906 25.092 130.62 23.81 130.62 22.3617C130.62 20.9135 130.906 19.6614 131.48 18.554V18.5545ZM141.298 20.1774C140.955 19.5556 140.493 19.0785 139.912 18.7461C139.33 18.4138 138.705 18.2476 138.038 18.2476C137.371 18.2476 136.755 18.4098 136.19 18.7332C135.625 19.0571 135.168 19.5296 134.817 20.1515C134.466 20.7738 134.291 21.5104 134.291 22.3622C134.291 23.2141 134.466 23.9597 134.817 24.5984C135.167 25.2372 135.629 25.7273 136.203 26.0681C136.776 26.409 137.388 26.5792 138.038 26.5792C138.688 26.5792 139.329 26.413 139.911 26.0806C140.493 25.7482 140.955 25.2717 141.297 24.6493C141.64 24.0275 141.81 23.282 141.81 22.4131C141.81 21.5443 141.639 20.7992 141.297 20.1769L141.298 20.1774Z" fill="white"/>
<path d="M151 10.5813V29.4926H147.406V10.5813H151Z" fill="white"/>
<path d="M156.595 10.5813V29.4926H153.002V10.5813H156.595Z" fill="white"/>
<path d="M171.713 23.4869H161.317C161.403 24.5089 161.762 25.3099 162.396 25.8893C163.029 26.4687 163.808 26.7581 164.731 26.7581C166.066 26.7581 167.016 26.1877 167.58 25.0459H171.456C171.046 26.4093 170.258 27.5292 169.095 28.4065C167.931 29.2843 166.503 29.7225 164.808 29.7225C163.439 29.7225 162.212 29.42 161.125 28.8152C160.038 28.2109 159.191 27.3545 158.584 26.2466C157.976 25.1392 157.673 23.8617 157.673 22.4134C157.673 20.9652 157.972 19.6622 158.571 18.5543C159.17 17.4469 160.008 16.5956 161.086 15.9987C162.164 15.4024 163.405 15.1044 164.807 15.1044C166.21 15.1044 167.37 15.3944 168.439 15.9733C169.508 16.5527 170.339 17.3746 170.929 18.4395C171.519 19.5045 171.815 20.7267 171.815 22.107C171.815 22.6181 171.78 23.0782 171.712 23.4869H171.713ZM168.094 21.085C168.077 20.1647 167.743 19.4282 167.093 18.8742C166.442 18.3208 165.647 18.0438 164.706 18.0438C163.816 18.0438 163.068 18.3123 162.46 18.8488C161.853 19.3852 161.48 20.1308 161.344 21.085H168.094Z" fill="white"/>
<path d="M177.078 18.2737V25.1226C177.078 25.5997 177.193 25.9445 177.424 26.1576C177.655 26.3707 178.044 26.477 178.592 26.477H180.26V29.4927H178.002C174.973 29.4927 173.459 28.0275 173.459 25.0971V18.2737H171.765V15.3348H173.459V11.8335H177.078V15.3348H180.26V18.2737H177.078Z" fill="white"/>
<path d="M20.4949 40.8109L31.3585 35.5355L32.0306 33.6898L33.1915 30.4982L25.59 26.8062L20.4949 40.8109Z" fill="#5EC2EE"/>
<path d="M22.9668 2.07736L20.3478 0.810944L17.7287 2.07736L0.260376 10.5633L3.32932 19.0168L20.3435 10.7548H20.3478H20.352L37.3662 19.0168L40.4351 10.5633L22.9668 2.07736Z" fill="#5EC2EE"/>
<path d="M4.43085 22.0446L7.50403 30.4981L8.66426 33.6898L9.33703 35.5355L20.2006 40.8108L15.1049 26.8061L20.3478 24.2645L33.1916 30.4981L36.2647 22.0446L20.3478 14.32L4.43085 22.0446Z" fill="#5EC2EE"/>
<path d="M20.4949 40.8108L25.59 26.8061L33.1915 30.4981L31.3585 35.5355L20.4949 40.8108Z" fill="#00579B"/>
<path d="M33.1916 30.498L25.5901 26.806L24.4553 29.9464L32.0307 33.6897L33.1916 30.498Z" fill="url(#paint0_linear_44_665)"/>
<path d="M33.1916 30.4981L20.3478 24.2645V14.3199L36.2648 22.0445L33.1916 30.4981Z" fill="#5EC2EE"/>
<path d="M22.9668 2.0773L40.4352 10.5632L37.3662 19.0168L20.352 10.7547H20.3478V0.810883L22.9668 2.0773Z" fill="#5EC2EE"/>
<path d="M20.2006 40.8109L15.1049 26.8062L7.50397 30.4982L9.33697 35.5355L20.2006 40.8109Z" fill="#00579B"/>
<path d="M7.50397 30.4982L15.1049 26.8062L16.2403 29.9466L8.66421 33.6898L7.50397 30.4982Z" fill="url(#paint1_linear_44_665)"/>
<path d="M7.50403 30.4981L20.3478 24.2645V14.32L4.43085 22.0446L7.50403 30.4981Z" fill="#5EC2EE"/>
<path d="M17.7287 2.07736L0.260376 10.5633L3.32932 19.0168L20.3435 10.7548H20.3478V0.810944L17.7287 2.07736Z" fill="#5EC2EE"/>
<defs>
<linearGradient id="paint0_linear_44_665" x1="29.5298" y1="28.5202" x2="28.0163" y2="31.4532" gradientUnits="userSpaceOnUse">
<stop stop-color="#103153"/>
<stop offset="1" stop-color="#00579B"/>
</linearGradient>
<linearGradient id="paint1_linear_44_665" x1="11.1657" y1="28.5203" x2="12.6792" y2="31.4533" gradientUnits="userSpaceOnUse">
<stop stop-color="#103153"/>
<stop offset="1" stop-color="#00579B"/>
</linearGradient>
</defs>
</svg>
