<svg width="30" height="24" viewBox="0 0 30 24" fill="none" xmlns="http://www.w3.org/2000/svg">
<path d="M6.92108 4.6721C5.50278 5.55912 4.27722 6.57831 3.16997 7.74874C2.21824 8.7543 1.37816 9.84707 0.636444 11.0257C0.314768 11.538 0.316098 11.9863 0.640431 12.4959C3.0623 16.296 6.23652 19.1383 10.5233 20.4927C14.18 21.6481 17.7942 21.4138 21.3194 19.8809C21.5546 19.7787 21.6823 19.81 21.8564 19.9926C22.7549 20.9342 23.6655 21.8661 24.5813 22.7899C25.1117 23.3254 25.9478 23.0965 26.1352 22.3798C26.215 22.0732 26.1485 21.7953 25.9597 21.5487C25.9013 21.471 25.8295 21.4042 25.7617 21.3347C19.1049 14.5138 12.4467 7.69288 5.7899 0.871943C5.72875 0.809266 5.66894 0.745226 5.60513 0.685275C5.22364 0.337822 4.68264 0.345997 4.33039 0.701624C3.96884 1.06815 3.95289 1.64315 4.31843 2.02739C4.98172 2.72365 5.6583 3.40765 6.33223 4.09438C6.51433 4.27968 6.70308 4.45818 6.92108 4.67074L6.92108 4.6721ZM10.5818 8.48997C8.80859 11.1987 9.6593 14.0996 11.059 15.6066C11.8632 16.4718 12.8229 17.0522 13.9634 17.2961C15.5359 17.6341 16.9847 17.2948 18.2608 16.4118C18.8975 17.0645 19.5103 17.6926 20.1217 18.3181C20.1244 18.3153 20.1031 18.3371 20.0779 18.348C16.9262 19.5771 13.7454 19.6547 10.5672 18.5074C7.15236 17.273 4.56168 14.9457 2.49738 11.9495C2.38306 11.7833 2.42427 11.6811 2.5213 11.5407C3.70432 9.81028 5.11996 8.31284 6.7948 7.07973C7.27332 6.72683 7.77711 6.41071 8.23569 6.10005C9.04653 6.92576 9.81483 7.70786 10.5845 8.48997L10.5818 8.48997ZM11.9296 9.94381C13.5806 11.6347 15.2381 13.3325 16.8904 15.0248C15.589 15.9349 13.5739 15.6175 12.3909 14.2972C11.1587 12.921 11.2132 10.9644 11.9283 9.94381L11.9296 9.94381Z" fill="#DFEFFF"/>
<path d="M23.5536 16.3763C24.0095 16.8395 24.4375 17.2742 24.8908 17.7347C25.041 17.6162 25.2085 17.4922 25.368 17.3573C27.0282 15.9621 28.4359 14.3406 29.591 12.4835C29.9034 11.9821 29.914 11.5419 29.5963 11.0392C27.2462 7.33302 24.165 4.54661 20.0298 3.1241C16.942 2.06131 13.8169 2.05177 10.6879 2.9715C10.6427 2.98512 10.6002 3.00692 10.5124 3.04371C11.0029 3.54513 11.4722 4.02883 11.952 4.50164C12.0039 4.55342 12.1328 4.55478 12.2165 4.53707C16.8968 3.54649 20.9735 4.84909 24.5678 7.9598C25.7615 8.99261 26.785 10.1862 27.6835 11.4956C27.8111 11.6823 27.8284 11.8049 27.6915 12.0039C26.5949 13.5871 25.3122 14.9824 23.8101 16.1678C23.7277 16.2332 23.6466 16.3 23.5549 16.3749L23.5536 16.3763Z" fill="#DFEFFF"/>
</svg>
